<?xml version="1.0" encoding="UTF-8"?>
<!-- Generator: Adobe Illustrator 16.1.0, SVG Export Plug-In . SVG Version: 6.00 Build 0)  -->
<!DOCTYPE svg PUBLIC "-//W3C//DTD SVG 1.1//EN" "http://www.w3.org/Graphics/SVG/1.1/DTD/svg11.dtd">
<svg version="1.1" id="Layer_1" xmlns="http://www.w3.org/2000/svg" xmlns:xlink="http://www.w3.org/1999/xlink" x="0px" y="0px" width="16px" height="16px" viewBox="0 0 16 16" enable-background="new 0 0 16 16" xml:space="preserve">
<g>
	<path fill="#888B8E" d="M13.682,2.446c-0.209-0.487-0.496-0.911-0.857-1.273c-0.363-0.362-0.785-0.648-1.268-0.858   C11.073,0.105,10.557,0,10.003,0H5.997c-0.553,0-1.07,0.105-1.553,0.316c-0.483,0.21-0.905,0.496-1.267,0.858   C2.815,1.536,2.529,1.96,2.319,2.447c-0.21,0.486-0.315,1.006-0.315,1.559v8c0,0.553,0.105,1.071,0.315,1.555   c0.21,0.482,0.496,0.904,0.858,1.267c0.362,0.362,0.784,0.647,1.267,0.858C4.927,15.895,5.444,16,5.997,16h4.006   c0.554,0,1.07-0.105,1.554-0.316c0.483-0.209,0.905-0.494,1.268-0.857c0.361-0.363,0.648-0.785,0.857-1.268   c0.211-0.483,0.315-1,0.315-1.554v-8C13.997,3.452,13.893,2.932,13.682,2.446z M8.725,14.738c-0.199,0.203-0.438,0.304-0.719,0.303   c-0.296,0-0.543-0.102-0.742-0.305c-0.198-0.201-0.298-0.446-0.298-0.734c0-0.141,0.027-0.271,0.082-0.396   c0.055-0.125,0.129-0.233,0.222-0.326c0.093-0.094,0.202-0.168,0.327-0.223c0.125-0.056,0.261-0.082,0.409-0.082   c0.28,0,0.52,0.102,0.719,0.305c0.197,0.203,0.297,0.443,0.297,0.724C9.021,14.291,8.923,14.536,8.725,14.738z M12,12.006H4v-8   c0-0.28,0.053-0.541,0.158-0.783C4.263,2.982,4.405,2.77,4.584,2.587S4.975,2.26,5.22,2.155C5.466,2.05,5.725,1.997,5.997,1.997   h4.006c0.28,0,0.541,0.053,0.782,0.158c0.242,0.105,0.451,0.249,0.631,0.432s0.322,0.395,0.426,0.636   C11.947,3.465,12,3.726,12,4.006V12.006z"/>
</g>
</svg>